<?xml version="1.0" encoding="UTF-8" standalone="no"?>
<!-- Created with Inkscape (http://www.inkscape.org/) -->
<svg
   xmlns:dc="http://purl.org/dc/elements/1.1/"
   xmlns:cc="http://creativecommons.org/ns#"
   xmlns:rdf="http://www.w3.org/1999/02/22-rdf-syntax-ns#"
   xmlns:svg="http://www.w3.org/2000/svg"
   xmlns="http://www.w3.org/2000/svg"
   xmlns:sodipodi="http://sodipodi.sourceforge.net/DTD/sodipodi-0.dtd"
   xmlns:inkscape="http://www.inkscape.org/namespaces/inkscape"
   width="210mm"
   height="297mm"
   id="svg2"
   sodipodi:version="0.32"
   inkscape:version="0.46"
   sodipodi:docname="iconos2.svg"
   inkscape:output_extension="org.inkscape.output.svg.inkscape">
  <defs
     id="defs4">
    <inkscape:perspective
       sodipodi:type="inkscape:persp3d"
       inkscape:vp_x="0 : 526.18109 : 1"
       inkscape:vp_y="6.1230318e-14 : 1000 : 0"
       inkscape:vp_z="744.09448 : 526.18109 : 1"
       inkscape:persp3d-origin="372.04724 : 350.78739 : 1"
       id="perspective10" />
  </defs>
  <sodipodi:namedview
     id="base"
     pagecolor="#ffe0e3"
     bordercolor="#666666"
     borderopacity="1.0"
     inkscape:pageopacity="1"
     inkscape:pageshadow="2"
     inkscape:zoom="0.48370732"
     inkscape:cx="494.05229"
     inkscape:cy="582.40307"
     inkscape:document-units="px"
     inkscape:current-layer="layer1"
     showgrid="false"
     showguides="true"
     inkscape:guide-bbox="true"
     inkscape:window-width="1280"
     inkscape:window-height="953"
     inkscape:window-x="0"
     inkscape:window-y="25" />
  <metadata
     id="metadata7">
    <rdf:RDF>
      <cc:Work
         rdf:about="">
        <dc:format>image/svg+xml</dc:format>
        <dc:type
           rdf:resource="http://purl.org/dc/dcmitype/StillImage" />
      </cc:Work>
    </rdf:RDF>
  </metadata>
  <g
     inkscape:label="Capa 1"
     inkscape:groupmode="layer"
     id="layer1">
    <g
       id="g3234"
       transform="translate(-166.31337,-369.21083)">
      <path
         sodipodi:nodetypes="ccccc"
         id="path3221"
         d="M 233.10187,475.11838 L 233.10187,453.88567 C 274.80984,450.10776 275.28514,450.08816 317.45273,453.88567 L 317.45273,475.11838 C 275.46979,479.01046 275.04531,478.95321 233.10187,475.11838 z"
         style="fill:#000000;fill-opacity:1;fill-rule:nonzero;stroke:none;stroke-width:1;stroke-linecap:round;stroke-linejoin:miter;marker:none;marker-start:none;marker-mid:none;marker-end:none;stroke-miterlimit:0.30000001;stroke-dashoffset:0;stroke-opacity:1;visibility:visible;display:inline;overflow:visible;enable-background:accumulate" />
      <path
         style="fill:#000000;fill-opacity:1;fill-rule:nonzero;stroke:none;stroke-width:1;stroke-linecap:round;stroke-linejoin:miter;marker:none;marker-start:none;marker-mid:none;marker-end:none;stroke-miterlimit:0.30000001;stroke-dashoffset:0;stroke-opacity:1;visibility:visible;display:inline;overflow:visible;enable-background:accumulate"
         d="M 263.359,506.34941 L 244.97094,495.73305 C 262.55316,457.72394 262.77383,457.30251 287.14637,422.68306 L 305.53443,433.29942 C 287.9136,471.60375 287.65178,471.94274 263.359,506.34941 z"
         id="path3230"
         sodipodi:nodetypes="ccccc" />
      <path
         sodipodi:nodetypes="ccccc"
         id="path3232"
         d="M 305.53443,495.73306 L 287.14637,506.3494 C 263.02062,472.1182 262.76599,471.71638 244.97094,433.29941 L 263.359,422.68307 C 287.72111,457.09532 287.88377,457.49156 305.53443,495.73306 z"
         style="fill:#000000;fill-opacity:1;fill-rule:nonzero;stroke:none;stroke-width:1;stroke-linecap:round;stroke-linejoin:miter;marker:none;marker-start:none;marker-mid:none;marker-end:none;stroke-miterlimit:0.30000001;stroke-dashoffset:0;stroke-opacity:1;visibility:visible;display:inline;overflow:visible;enable-background:accumulate" />
    </g>
    <path
       style="fill:#000000;fill-opacity:1;fill-rule:nonzero;stroke:none;stroke-width:1;stroke-linecap:round;stroke-linejoin:miter;marker:none;marker-start:none;marker-mid:none;marker-end:none;stroke-miterlimit:0.30000001;stroke-dashoffset:0;stroke-opacity:1;visibility:visible;display:inline;overflow:visible;enable-background:accumulate"
       d="M 181.48737,105.89334 L 181.48737,84.660626 C 223.19535,80.882716 223.67065,80.863116 265.83824,84.660626 L 265.83824,105.89334 C 223.8553,109.78542 223.43082,109.72817 181.48737,105.89334 z"
       id="path3250"
       sodipodi:nodetypes="ccccc" />
    <g
       id="g3254"
       transform="translate(206.45798,-402.20096)">
      <path
         style="fill:#000000;fill-opacity:1;fill-rule:nonzero;stroke:none;stroke-width:1;stroke-linecap:round;stroke-linejoin:miter;marker:none;marker-start:none;marker-mid:none;marker-end:none;stroke-miterlimit:0.30000001;stroke-dashoffset:0;stroke-opacity:1;visibility:visible;display:inline;overflow:visible;enable-background:accumulate"
         d="M 88.294535,508.0943 L 88.294535,486.86159 C 130.00251,483.08368 130.47781,483.06408 172.6454,486.86159 L 172.6454,508.0943 C 130.66246,511.98638 130.23798,511.92913 88.294535,508.0943 z"
         id="path3241"
         sodipodi:nodetypes="ccccc" />
      <path
         sodipodi:nodetypes="ccccc"
         id="path3252"
         d="M 119.88203,455.33093 L 141.11474,455.33093 C 144.89265,497.03891 144.91225,497.51421 141.11474,539.6818 L 119.88203,539.6818 C 115.98995,497.69886 116.0472,497.27438 119.88203,455.33093 z"
         style="fill:#000000;fill-opacity:1;fill-rule:nonzero;stroke:none;stroke-width:1;stroke-linecap:round;stroke-linejoin:miter;marker:none;marker-start:none;marker-mid:none;marker-end:none;stroke-miterlimit:0.30000001;stroke-dashoffset:0;stroke-opacity:1;visibility:visible;display:inline;overflow:visible;enable-background:accumulate" />
    </g>
    <path
       style="fill:#000000;fill-opacity:1;fill-rule:nonzero;stroke:none;stroke-width:1;stroke-linecap:round;stroke-linejoin:miter;marker:none;marker-start:none;marker-mid:none;marker-end:none;stroke-miterlimit:0.30000001;stroke-dashoffset:0;stroke-opacity:1;visibility:visible;display:inline;overflow:visible;enable-background:accumulate"
       d="M 180.95536,238.25206 L 180.95536,216.02923 C 223.23136,206.43557 222.957,206.26467 265.54577,216.02923 L 265.54577,238.25206 C 223.17181,248.12585 222.85676,248.30447 180.95536,238.25206 z"
       id="rect3258"
       sodipodi:nodetypes="ccccc" />
    <g
       id="g3271"
       transform="translate(180.65073,-210.75919)">
      <path
         style="fill:#000000;fill-opacity:1;fill-rule:nonzero;stroke:none;stroke-width:1;stroke-linecap:round;stroke-linejoin:miter;marker:none;marker-start:none;marker-mid:none;marker-end:none;stroke-miterlimit:0.30000001;stroke-dashoffset:0;stroke-opacity:1;visibility:visible;display:inline;overflow:visible;enable-background:accumulate"
         d="M 110.7023,441.84257 L 110.7023,419.61974 C 152.9783,410.02608 152.70394,409.85518 195.29271,419.61974 L 195.29271,441.84257 C 152.91875,451.71636 152.6037,451.89498 110.7023,441.84257 z"
         id="path3267"
         sodipodi:nodetypes="ccccc" />
      <path
         sodipodi:nodetypes="ccccc"
         id="path3269"
         d="M 141.99259,388.54245 L 164.21542,388.54245 C 173.80908,430.81845 173.97998,430.54409 164.21542,473.13286 L 141.99259,473.13286 C 132.1188,430.7589 131.94018,430.44385 141.99259,388.54245 z"
         style="fill:#000000;fill-opacity:1;fill-rule:nonzero;stroke:none;stroke-width:1;stroke-linecap:round;stroke-linejoin:miter;marker:none;marker-start:none;marker-mid:none;marker-end:none;stroke-miterlimit:0.30000001;stroke-dashoffset:0;stroke-opacity:1;visibility:visible;display:inline;overflow:visible;enable-background:accumulate" />
    </g>
    <g
       id="g3281"
       transform="translate(-5.7349437,-212.19292)">
      <path
         style="fill:#000000;fill-opacity:1;fill-rule:nonzero;stroke:none;stroke-width:1;stroke-linecap:round;stroke-linejoin:miter;marker:none;marker-start:none;marker-mid:none;marker-end:none;stroke-miterlimit:0.30000001;stroke-dashoffset:0;stroke-opacity:1;visibility:visible;display:inline;overflow:visible;enable-background:accumulate"
         d="M 73.425161,449.01124 L 73.425161,426.78841 C 115.70116,417.19475 115.4268,417.02385 158.01557,426.78841 L 158.01557,449.01124 C 115.64161,458.88503 115.32656,459.06365 73.425161,449.01124 z"
         id="path3275"
         sodipodi:nodetypes="ccccc" />
      <path
         sodipodi:nodetypes="ccccc"
         id="path3277"
         d="M 104.1033,480.1375 L 84.857763,469.02609 C 97.68741,427.61717 97.402226,427.76932 127.15297,395.76865 L 146.3985,406.88006 C 133.76248,448.51388 133.75964,448.87603 104.1033,480.1375 z"
         style="fill:#000000;fill-opacity:1;fill-rule:nonzero;stroke:none;stroke-width:1;stroke-linecap:round;stroke-linejoin:miter;marker:none;marker-start:none;marker-mid:none;marker-end:none;stroke-miterlimit:0.30000001;stroke-dashoffset:0;stroke-opacity:1;visibility:visible;display:inline;overflow:visible;enable-background:accumulate" />
      <path
         style="fill:#000000;fill-opacity:1;fill-rule:nonzero;stroke:none;stroke-width:1;stroke-linecap:round;stroke-linejoin:miter;marker:none;marker-start:none;marker-mid:none;marker-end:none;stroke-miterlimit:0.30000001;stroke-dashoffset:0;stroke-opacity:1;visibility:visible;display:inline;overflow:visible;enable-background:accumulate"
         d="M 146.3985,469.02608 L 127.15297,480.1375 C 97.706614,448.32224 97.695788,448.64529 84.857767,406.88006 L 104.1033,395.76865 C 133.84123,427.52867 134.15344,427.71221 146.3985,469.02608 z"
         id="path3279"
         sodipodi:nodetypes="ccccc" />
    </g>
    <path
       style="fill:#000000;fill-opacity:1;fill-rule:nonzero;stroke:none;stroke-width:15;stroke-linecap:round;stroke-linejoin:miter;marker:none;marker-start:none;marker-mid:none;marker-end:none;stroke-miterlimit:0.30000001;stroke-dasharray:none;stroke-dashoffset:0;stroke-opacity:1;visibility:visible;display:inline;overflow:visible;enable-background:accumulate"
       d="M 455.72366,51.019858 C 429.74273,51.019858 408.65904,58.557328 408.65904,67.843298 C 408.65904,71.316488 411.6122,74.544708 416.66469,77.225598 C 424.525,88.183838 439.73421,106.38018 448.80054,115.58519 L 448.80054,135.18019 C 448.80054,137.62272 451.09785,139.59095 453.94883,139.59095 L 457.51108,139.59095 C 460.36203,139.59095 462.65938,137.62274 462.65938,135.18019 L 462.65938,115.58519 C 471.72567,106.38018 486.93491,88.183838 494.79523,77.225598 C 499.84772,74.544708 502.80087,71.316488 502.80087,67.843298 C 502.80087,58.557328 481.70459,51.019858 455.72366,51.019858 z M 455.72366,55.278748 C 478.19796,55.278758 494.42788,61.589958 494.42788,67.843298 C 494.42788,74.096648 478.19796,80.035998 455.72366,80.035998 C 433.24933,80.035998 416.62877,73.905338 416.62877,67.843298 C 416.62877,61.016028 433.24933,55.278748 455.72366,55.278748 z"
       id="path3323"
       sodipodi:nodetypes="csccccccccsccsssc" />
  </g>
</svg>
